<svg width="226" height="269" viewBox="0 0 226 269" fill="none" xmlns="http://www.w3.org/2000/svg">
    <path d="M159.94 73.74C159.94 73.74 180.55 63.96 174.53 84.74C168.51 105.52 156.53 101.87 156.53 101.87"
          fill="white"/>
    <path d="M159.94 73.74C159.94 73.74 180.55 63.96 174.53 84.74C168.51 105.52 156.53 101.87 156.53 101.87"
          stroke="black" stroke-width="2" stroke-miterlimit="10"/>
    <path d="M169.65 79.35C169.65 79.35 162.95 76.47 159.94 84C159.94 84 166.94 81.81 164.04 93.3" fill="white"/>
    <path d="M169.65 79.35C169.65 79.35 162.95 76.47 159.94 84C159.94 84 166.94 81.81 164.04 93.3" stroke="black"
          stroke-width="2" stroke-linecap="round" stroke-linejoin="round"/>
    <path d="M60.0608 72.5699C60.0608 72.5699 39.451 62.7999 45.471 83.5699C51.491 104.34 63.471 100.71 63.471 100.71"
          fill="white"/>
    <path d="M60.0608 72.5699C60.0608 72.5699 39.451 62.7999 45.471 83.5699C51.491 104.34 63.471 100.71 63.471 100.71"
          stroke="black" stroke-width="2" stroke-miterlimit="10"/>
    <path d="M50.3506 78.1799C50.3506 78.1799 57.0505 75.31 60.0605 82.83C60.0605 82.83 53.06 80.6399 55.96 92.1299"
          fill="white"/>
    <path d="M50.3506 78.1799C50.3506 78.1799 57.0505 75.31 60.0605 82.83C60.0605 82.83 53.06 80.6399 55.96 92.1299"
          stroke="black" stroke-width="2" stroke-linecap="round" stroke-linejoin="round"/>
    <path d="M224.19 222.41L223.28 223.28L222.891 223.64C222.744 223.793 222.594 223.933 222.44 224.06C218.303 227.931 213.964 231.579 209.44 234.99C205.38 238.037 201.171 240.897 196.811 243.57C192.103 246.449 187.25 249.082 182.271 251.46L181.21 251.96C162.091 260.931 141.38 266.013 120.28 266.91C118.67 266.98 117.06 267.03 115.44 267.05H113.15H107.96V266.97L106.021 266.89C68.0632 265.239 31.9297 250.143 4.08008 224.3L3.61035 223.86L2.68066 222.98C2.54675 222.868 2.41997 222.748 2.30078 222.62L1.43066 221.77L2.03027 220.95C6.56201 214.927 11.7285 209.408 17.4404 204.49L19.1299 203.06C28.3009 195.587 39.0208 190.248 50.5107 187.43C68.2607 182.88 75.9004 172.21 75.9004 172.21V129.1L143.9 129.58V172.21C143.9 172.21 152.58 183.52 172.82 187.81C183.295 190.053 193.177 194.483 201.82 200.81C203.37 201.94 204.97 203.16 206.59 204.47C212.675 209.34 218.212 214.86 223.101 220.93C223.441 221.44 223.82 221.92 224.19 222.41Z"
          fill="white" stroke="black" stroke-width="2" stroke-linecap="round" stroke-linejoin="round"/>
    <path d="M110.15 149.8C137.649 149.8 159.94 119.454 159.94 82.02C159.94 44.5861 137.649 14.24 110.15 14.24C82.6521 14.24 60.3604 44.5861 60.3604 82.02C60.3604 119.454 82.6521 149.8 110.15 149.8Z"
          fill="white" stroke="black" stroke-width="2.19" stroke-miterlimit="10"/>
    <path d="M107 71.96V93.44C107 93.44 109.81 101.53 118.49 94.8" stroke="black" stroke-width="2"
          stroke-linecap="round" stroke-linejoin="round"/>
    <path d="M93.7305 104.52C93.7305 104.52 111.381 119.43 127.931 105.52" stroke="black" stroke-width="2"
          stroke-linecap="round" stroke-linejoin="round"/>
    <path d="M130.84 71.19C133.104 71.19 134.94 69.3544 134.94 67.09C134.94 64.8256 133.104 62.99 130.84 62.99C128.575 62.99 126.74 64.8256 126.74 67.09C126.74 69.3544 128.575 71.19 130.84 71.19Z"
          fill="black"/>
    <path d="M88.1699 71.19C90.4343 71.19 92.2695 69.3544 92.2695 67.09C92.2695 64.8256 90.4343 62.99 88.1699 62.99C85.9056 62.99 84.0703 64.8256 84.0703 67.09C84.0703 69.3544 85.9056 71.19 88.1699 71.19Z"
          fill="black"/>
    <path d="M118.011 52.83L121.71 57.5L146.601 57.06C146.601 57.06 138.671 53.13 135.931 52.83C133.191 52.53 118.011 52.83 118.011 52.83Z"
          fill="black"/>
    <path d="M100.78 52.48L97.7803 57.73L72.8799 57.28C72.8799 57.28 80.8108 53.35 83.5508 53.05C86.2908 52.75 100.78 52.48 100.78 52.48Z"
          fill="black"/>
    <path d="M143.57 132.28V143.93C141.16 158.93 124.97 170.01 107.82 166.72C90.9503 163.49 77.1702 134.05 76.7402 133.12C85.5302 144.26 97.4502 149.79 110.16 149.79C123.16 149.79 134.7 143.93 143.57 132.28Z"
          fill="black"/>
    <path d="M75.8604 172.23C75.8604 172.23 109.28 209.01 143.86 172.23H75.8604Z" fill="white"/>
    <path d="M75.8604 172.23C75.8604 172.23 109.28 209.01 143.86 172.23" stroke="black" stroke-width="2.31"
          stroke-miterlimit="10"/>
    <path d="M129.65 95.84C129.65 95.84 137.33 102.94 136.94 115.9" stroke="black" stroke-linecap="round"
          stroke-linejoin="round"/>
    <path d="M91.6806 95.8699C91.6806 95.8699 83.9999 102.97 84.3799 115.93" stroke="black" stroke-linecap="round"
          stroke-linejoin="round"/>
    <path d="M93.7308 32.56C93.7308 32.56 102.361 44.65 126.731 38.56C126.731 38.56 131.101 47.32 143.551 44.56C143.551 44.56 159.241 65.7 159.931 80.2C161.258 70.6483 161.892 61.0131 161.83 51.3699C161.83 38.2899 161.911 21.61 151.561 11.96C144.861 5.70999 130.77 1.22993 123.75 9.51993C123.29 7.51993 80.9402 -11.26 63.4202 15.86C47.6502 40.28 60.4202 78.6499 60.4202 78.6499C60.4202 78.6499 65.4205 45.46 76.7405 35.19C76.7305 35.28 82.1408 39.81 93.7308 32.56Z"
          fill="white" stroke="black" stroke-width="2" stroke-miterlimit="10"/>
    <path d="M113.11 188.57V267.05H107.92V188.55H113.11V188.57Z" fill="black"/>
    <path d="M94.5 133.91C94.5 133.91 95.2102 147.04 107.99 157.69C107.99 157.69 120.99 153.78 127.16 133.91C127.16 133.91 114.89 131.47 110.83 131.14C106.45 130.79 94.5 133.91 94.5 133.91Z"
          fill="white" stroke="black" stroke-linecap="round" stroke-linejoin="round"/>
</svg>
