<svg width="222" height="270" viewBox="0 0 222 270" fill="none" xmlns="http://www.w3.org/2000/svg">
    <path d="M191.57 139.16L179.09 88.6101C171.6 39.3001 159.21 1.97005 116.43 0.530046C73.6497 -0.909954 51.5998 34.3201 50.3398 63.3301C49.0798 92.3401 32.3999 140.69 32.3999 140.69C32.3999 140.69 45.9198 155.57 73.0898 147.51C100.26 139.45 138.42 143.51 138.42 143.51C138.42 143.51 169.95 159.51 191.57 139.16Z"
          fill="black"/>
    <path d="M220.49 225.41L220.18 225.71C220.113 225.755 220.053 225.809 220 225.87C215.844 229.746 211.484 233.398 206.94 236.81C203.2 239.623 199.333 242.27 195.34 244.75C194.77 245.11 194.19 245.46 193.61 245.81C189.15 248.477 184.546 250.96 179.8 253.26C179.43 253.43 179.07 253.61 178.7 253.77C177.86 254.17 177.02 254.56 176.17 254.94C170.413 257.52 164.506 259.751 158.48 261.62C157.08 262.07 155.66 262.49 154.24 262.89C144.261 265.694 134.033 267.516 123.7 268.33L122.54 268.42C120.98 268.54 119.42 268.63 117.85 268.7H103.57C101.96 268.63 100.35 268.54 98.7598 268.42C80.0956 267.069 61.8158 262.438 44.7598 254.74L43.1997 254.03L41.5498 253.25C35.4997 250.363 29.6383 247.096 24 243.47C20.7067 241.35 17.4999 239.12 14.3799 236.78C9.93848 233.443 5.6725 229.878 1.59961 226.1L1.41992 225.93L1.09961 225.63C7.81065 217.819 15.5125 210.918 24.0098 205.1C30.0948 200.909 36.517 197.23 43.21 194.1C47.06 192.29 51.14 190.58 55.46 189H55.6099C58.6099 187.893 61.7333 186.857 64.98 185.89L84.3398 171.78V132.1H138.49V170.65C138.49 170.65 150.13 181.72 156.35 185.8C157.027 186.263 157.744 186.668 158.49 187.01C160.56 187.9 167.4 189.87 176.18 193.55C182.82 196.319 189.239 199.591 195.38 203.34C203.912 208.47 211.577 214.92 218.09 222.45C218.89 223.43 219.71 224.42 220.49 225.41Z"
          fill="white" stroke="black" stroke-width="2" stroke-linecap="round" stroke-linejoin="round"/>
    <path d="M84.3101 133.32C84.3101 133.32 105.77 157.13 122.86 154.82C139.95 152.51 137.64 147.72 137.64 147.72L138.46 132.09L84.3101 133.32Z"
          fill="black"/>
    <path d="M65.0794 78.2301C65.0794 78.2301 61.2896 70.2302 53.6996 74.3102C46.1096 78.3902 52.7699 98.9002 61.2899 102.81C69.8099 106.72 68.2899 100.28 68.2899 100.28"
          fill="white"/>
    <path d="M65.0794 78.2301C65.0794 78.2301 61.2896 70.2302 53.6996 74.3102C46.1096 78.3902 52.7699 98.9002 61.2899 102.81C69.8099 106.72 68.2899 100.28 68.2899 100.28"
          stroke="black" stroke-width="2" stroke-linecap="round" stroke-linejoin="round"/>
    <path d="M55.3398 82.36C55.3398 82.36 64.1199 82.2399 66.6499 89.4799L55.3398 82.36Z" fill="white"/>
    <path d="M55.3398 82.36C55.3398 82.36 64.1199 82.2399 66.6499 89.4799" stroke="black" stroke-width="2"
          stroke-linecap="round" stroke-linejoin="round"/>
    <path d="M60.57 93.8801C60.57 93.8801 57.1399 87.78 62.9499 85.25L60.57 93.8801Z" fill="white"/>
    <path d="M60.57 93.8801C60.57 93.8801 57.1399 87.78 62.9499 85.25" stroke="black" stroke-width="2"
          stroke-linecap="round" stroke-linejoin="round"/>
    <path d="M160.2 78.2301C160.2 78.2301 164 70.2302 171.59 74.3102C179.18 78.3902 172.52 98.9002 164 102.81C155.48 106.72 157 100.28 157 100.28"
          fill="white"/>
    <path d="M160.2 78.2301C160.2 78.2301 164 70.2302 171.59 74.3102C179.18 78.3902 172.52 98.9002 164 102.81C155.48 106.72 157 100.28 157 100.28"
          stroke="black" stroke-width="2" stroke-linecap="round" stroke-linejoin="round"/>
    <path d="M169.95 82.36C169.95 82.36 161.17 82.2399 158.64 89.4799L169.95 82.36Z" fill="white"/>
    <path d="M169.95 82.36C169.95 82.36 161.17 82.2399 158.64 89.4799" stroke="black" stroke-width="2"
          stroke-linecap="round" stroke-linejoin="round"/>
    <path d="M164.71 93.8801C164.71 93.8801 168.14 87.78 162.33 85.25L164.71 93.8801Z" fill="white"/>
    <path d="M164.71 93.8801C164.71 93.8801 168.14 87.78 162.33 85.25" stroke="black" stroke-width="2"
          stroke-linecap="round" stroke-linejoin="round"/>
    <path d="M65.4097 66.51C65.4097 66.51 62.9498 109.85 75.4898 122.93C88.0298 136.01 94.3 140.65 105.21 142.02C116.12 143.39 121.29 143.65 135.21 134.38C149.13 125.11 154.02 116.38 155.93 106.85C157.84 97.3201 163.02 57.24 163.02 57.24L149.93 24.24L109.29 12.8L95.1196 14.4399L79.5698 25.6201L67.8496 44.1501L65.4097 66.51Z"
          fill="white" stroke="black" stroke-width="1.51" stroke-miterlimit="10"/>
    <path d="M134.19 76.5C135.034 76.5 135.86 76.2497 136.562 75.7805C137.264 75.3113 137.812 74.6442 138.135 73.864C138.458 73.0837 138.543 72.2252 138.378 71.3969C138.213 70.5686 137.806 69.8078 137.209 69.2107C136.612 68.6135 135.851 68.2067 135.023 68.042C134.195 67.8772 133.336 67.9619 132.556 68.2851C131.775 68.6083 131.109 69.1554 130.64 69.8576C130.17 70.5598 129.92 71.3854 129.92 72.23C129.92 73.3624 130.37 74.4487 131.17 75.2495C131.971 76.0503 133.057 76.5 134.19 76.5Z"
          fill="black"/>
    <path d="M88.5698 76.5C89.4144 76.5 90.2397 76.2497 90.9419 75.7805C91.6441 75.3113 92.1915 74.6442 92.5146 73.864C92.8378 73.0837 92.9226 72.2252 92.7578 71.3969C92.5931 70.5686 92.1865 69.8078 91.5894 69.2107C90.9922 68.6135 90.2311 68.2067 89.4028 68.042C88.5745 67.8772 87.7158 67.9619 86.9355 68.2851C86.1553 68.6083 85.4887 69.1554 85.0195 69.8576C84.5503 70.5598 84.2998 71.3854 84.2998 72.23C84.2998 73.3624 84.7495 74.4487 85.5503 75.2495C86.3511 76.0503 87.4373 76.5 88.5698 76.5Z"
          fill="black"/>
    <path d="M107.71 83.95V92.55C107.649 93.5939 107.938 94.6282 108.53 95.49C109.123 96.3529 109.984 96.9961 110.98 97.3201C111.97 97.6502 113.04 97.6502 114.03 97.3201C115.015 96.9702 115.859 96.306 116.43 95.4299"
          stroke="black" stroke-width="2" stroke-linecap="round" stroke-linejoin="round"/>
    <path d="M95.21 105.94C95.21 105.94 113.56 116.85 128.65 105.94" stroke="black" stroke-width="2"
          stroke-linecap="round" stroke-linejoin="round"/>
    <path d="M122.19 58.6502L125.88 63.3301L150.78 62.8802C150.78 62.8802 142.84 58.9502 140.11 58.6502C137.38 58.3502 122.19 58.6502 122.19 58.6502Z"
          fill="black"/>
    <path d="M101.71 58.6502L98.02 63.3301L73.1196 62.8802C73.1196 62.8802 81.06 58.9502 83.79 58.6502C86.52 58.3502 101.71 58.6502 101.71 58.6502Z"
          fill="black"/>
    <path d="M158.46 186.99H158.4C106.5 221.53 66.7798 187.39 65.0098 185.84L64.9497 185.78" stroke="black"
          stroke-width="2" stroke-miterlimit="10"/>
    <path d="M101.71 34.9001C101.71 34.9001 116.14 52.1801 152.71 53.6201C152.71 53.6201 160.47 64.4501 159.61 82.3601C159.61 82.3601 184.07 6.96003 111.36 1.78003C110.707 1.79512 110.056 1.84509 109.41 1.92993C102.553 2.6561 95.9068 4.7295 89.8534 8.03101C83.7999 11.3325 78.4585 15.7972 74.1351 21.1687C69.8117 26.5402 66.5915 32.7126 64.66 39.3318C62.7285 45.951 62.1237 52.8863 62.8797 59.74L65.1898 80.98C65.1898 80.98 63.7098 35.1901 101.71 34.9001Z"
          fill="black"/>
    <path d="M55.4199 188.98C55.4199 188.98 54.8997 205.4 87.1597 205.2L106.71 203.28C106.71 203.28 80.4098 200.04 65.8198 185.82L55.4199 188.98Z"
          fill="black"/>
    <path d="M167.13 190.52C167.13 190.52 165.89 207.73 133.76 204.87L114.4 201.33C114.4 201.33 140.88 200.28 156.6 187.33L167.13 190.52Z"
          fill="black"/>
    <path d="M123.63 201.33V268.33L122.47 268.42C120.91 268.54 119.35 268.63 117.78 268.7H105.16V201.33H123.63Z"
          fill="black"/>
    <path d="M114.49 222.1C115.249 222.1 115.992 221.875 116.623 221.453C117.255 221.031 117.747 220.431 118.038 219.73C118.328 219.028 118.404 218.256 118.256 217.511C118.108 216.766 117.742 216.082 117.205 215.545C116.668 215.008 115.984 214.642 115.239 214.494C114.494 214.346 113.722 214.422 113.021 214.712C112.319 215.003 111.719 215.495 111.297 216.127C110.875 216.758 110.65 217.501 110.65 218.26C110.65 218.764 110.749 219.264 110.942 219.73C111.135 220.195 111.418 220.619 111.774 220.975C112.131 221.332 112.555 221.615 113.021 221.808C113.486 222.001 113.985 222.1 114.49 222.1Z"
          fill="white"/>
    <path d="M114.49 235.74C115.249 235.74 115.992 235.515 116.623 235.093C117.255 234.671 117.747 234.071 118.038 233.37C118.328 232.668 118.404 231.896 118.256 231.151C118.108 230.406 117.742 229.722 117.205 229.185C116.668 228.648 115.984 228.282 115.239 228.134C114.494 227.986 113.722 228.062 113.021 228.352C112.319 228.643 111.719 229.135 111.297 229.767C110.875 230.398 110.65 231.141 110.65 231.9C110.65 232.919 111.054 233.895 111.774 234.615C112.495 235.335 113.471 235.74 114.49 235.74Z"
          fill="white"/>
    <path d="M114.49 249.37C115.249 249.37 115.992 249.145 116.623 248.723C117.255 248.301 117.747 247.701 118.038 247C118.328 246.298 118.404 245.526 118.256 244.781C118.108 244.036 117.742 243.352 117.205 242.815C116.668 242.278 115.984 241.912 115.239 241.764C114.494 241.616 113.722 241.692 113.021 241.982C112.319 242.273 111.719 242.765 111.297 243.397C110.875 244.028 110.65 244.771 110.65 245.53C110.65 246.549 111.054 247.525 111.774 248.245C112.495 248.966 113.471 249.37 114.49 249.37Z"
          fill="white"/>
</svg>
