<svg width="222" height="283" viewBox="0 0 222 283" fill="none" xmlns="http://www.w3.org/2000/svg">
    <path d="M68.1798 115.37C68.1798 115.37 84.4502 187.99 37.8102 217.94C-13.3698 250.8 187.72 242.71 187.72 242.71C187.72 242.71 139.64 196.71 158.78 101.92L68.1798 115.37Z"
          fill="black"/>
    <path d="M220.65 237.85L220.16 238.31C216.005 242.188 211.646 245.84 207.1 249.25C203.36 252.057 199.493 254.703 195.5 257.19C190.474 260.324 185.276 263.172 179.93 265.72C178.73 266.293 177.52 266.853 176.3 267.4C157.892 275.64 138.089 280.312 117.94 281.17H103.69C90.8863 280.618 78.1951 278.53 65.8896 274.95C58.1691 272.711 50.6308 269.886 43.3398 266.5L41.6899 265.72C35.643 262.827 29.7814 259.56 24.1396 255.94C20.8596 253.82 17.6534 251.59 14.52 249.25C10.0772 245.907 5.8082 242.339 1.72998 238.56L1.21973 238.08L1.65967 237.57C2.35967 236.76 3.07982 235.96 3.81982 235.15C9.17504 229.319 15.0978 224.037 21.5 219.38C22.35 218.76 23.2296 218.14 24.1196 217.52C25.3996 216.63 26.7396 215.75 28.1196 214.9C33.0149 211.792 38.1057 209.003 43.3599 206.55C47.0599 204.81 50.9729 203.173 55.0996 201.64C56.3196 201.19 57.5501 200.75 58.8101 200.32C60.8101 199.61 62.9699 198.94 65.1299 198.32L84.4897 184.21V144.58H138.64V183.05C138.64 183.05 150.28 194.12 156.5 198.2C157.179 198.661 157.895 199.066 158.64 199.41C159.51 199.78 161.21 200.34 163.54 201.14C166.78 202.25 171.23 203.81 176.33 205.95C182.97 208.719 189.389 211.991 195.53 215.74C197.35 216.86 199.18 218.05 200.99 219.33C207.39 223.731 213.189 228.949 218.24 234.85L218.45 235.1C219.19 236.05 219.94 236.95 220.65 237.85Z"
          fill="white" stroke="black" stroke-width="2" stroke-linecap="round" stroke-linejoin="round"/>
    <path d="M84.4497 145.76C84.4497 145.76 105.92 169.57 123 167.26C140.08 164.95 137.79 160.16 137.79 160.16L138.61 144.53L84.4497 145.76Z"
          fill="black"/>
    <path d="M65.2298 90.68C65.2298 90.68 61.4395 82.68 53.8495 86.75C46.2595 90.82 52.9198 111.34 61.4398 115.25C69.9598 119.16 68.4398 112.72 68.4398 112.72"
          fill="white"/>
    <path d="M65.2298 90.68C65.2298 90.68 61.4395 82.68 53.8495 86.75C46.2595 90.82 52.9198 111.34 61.4398 115.25C69.9598 119.16 68.4398 112.72 68.4398 112.72"
          stroke="black" stroke-width="2" stroke-linecap="round" stroke-linejoin="round"/>
    <path d="M55.48 94.8C55.48 94.8 64.2698 94.68 66.7998 101.92L55.48 94.8Z" fill="white"/>
    <path d="M55.48 94.8C55.48 94.8 64.2698 94.68 66.7998 101.92" stroke="black" stroke-width="2" stroke-linecap="round"
          stroke-linejoin="round"/>
    <path d="M60.6999 106.32C60.6999 106.32 57.2698 100.22 63.0798 97.69L60.6999 106.32Z" fill="white"/>
    <path d="M60.6999 106.32C60.6999 106.32 57.2698 100.22 63.0798 97.69" stroke="black" stroke-width="2"
          stroke-linecap="round" stroke-linejoin="round"/>
    <path d="M160.35 90.68C160.35 90.68 164.15 82.68 171.74 86.75C179.33 90.82 172.67 111.34 164.15 115.25C155.63 119.16 157.15 112.72 157.15 112.72"
          fill="white"/>
    <path d="M160.35 90.68C160.35 90.68 164.15 82.68 171.74 86.75C179.33 90.82 172.67 111.34 164.15 115.25C155.63 119.16 157.15 112.72 157.15 112.72"
          stroke="black" stroke-width="2" stroke-linecap="round" stroke-linejoin="round"/>
    <path d="M170.09 94.8C170.09 94.8 161.3 94.68 158.77 101.92L170.09 94.8Z" fill="white"/>
    <path d="M170.09 94.8C170.09 94.8 161.3 94.68 158.77 101.92" stroke="black" stroke-width="2" stroke-linecap="round"
          stroke-linejoin="round"/>
    <path d="M164.88 106.32C164.88 106.32 168.31 100.22 162.51 97.69L164.88 106.32Z" fill="white"/>
    <path d="M164.88 106.32C164.88 106.32 168.31 100.22 162.51 97.69" stroke="black" stroke-width="2"
          stroke-linecap="round" stroke-linejoin="round"/>
    <path d="M65.5699 78.95C65.5699 78.95 63.1197 122.29 75.6597 135.37C88.1997 148.45 94.4697 153.09 105.37 154.46C116.27 155.83 121.46 156.09 135.37 146.82C149.28 137.55 154.18 128.82 156.09 119.29C158 109.76 163.17 69.68 163.17 69.68L150.09 36.68L109.47 25.2399L95.2999 26.8699L79.7301 38.05L68.0098 56.58L65.5699 78.95Z"
          fill="white" stroke="black" stroke-width="1.51" stroke-miterlimit="10"/>
    <path d="M134.34 88.94C135.184 88.94 136.01 88.6896 136.712 88.2204C137.414 87.7512 137.961 87.0843 138.285 86.304C138.608 85.5238 138.693 84.6653 138.528 83.837C138.363 83.0087 137.957 82.2479 137.359 81.6507C136.762 81.0535 136.001 80.6468 135.173 80.482C134.345 80.3172 133.486 80.4019 132.706 80.725C131.925 81.0482 131.259 81.5955 130.79 82.2977C130.32 82.9999 130.07 83.8255 130.07 84.67C130.07 85.8025 130.52 86.8886 131.32 87.6894C132.121 88.4902 133.207 88.94 134.34 88.94Z"
          fill="black"/>
    <path d="M88.7197 88.94C89.5643 88.94 90.3901 88.6896 91.0923 88.2204C91.7945 87.7512 92.3414 87.0843 92.6646 86.304C92.9877 85.5238 93.0725 84.6653 92.9077 83.837C92.743 83.0087 92.3364 82.2479 91.7393 81.6507C91.1421 81.0535 90.381 80.6468 89.5527 80.482C88.7244 80.3172 87.8662 80.4019 87.0859 80.725C86.3057 81.0482 85.6386 81.5955 85.1694 82.2977C84.7002 82.9999 84.4497 83.8255 84.4497 84.67C84.4497 85.8025 84.8999 86.8886 85.7007 87.6894C86.5015 88.4902 87.5873 88.94 88.7197 88.94Z"
          fill="black"/>
    <path d="M107.9 96.39V104.99C107.883 106.28 108.372 107.525 109.262 108.459C110.151 109.394 111.37 109.943 112.66 109.99C113.449 109.973 114.223 109.769 114.918 109.395C115.613 109.022 116.21 108.489 116.66 107.84"
          stroke="black" stroke-width="2" stroke-linecap="round" stroke-linejoin="round"/>
    <path d="M95.3599 118.38C95.3599 118.38 113.71 129.29 128.8 118.38" stroke="black" stroke-width="2"
          stroke-linecap="round" stroke-linejoin="round"/>
    <path d="M122.34 71.05L126.03 75.7301L150.93 75.28C150.93 75.28 142.99 71.35 140.26 71.05C137.53 70.75 122.34 71.05 122.34 71.05Z"
          fill="black"/>
    <path d="M101.87 71.05L98.1797 75.7301L73.2798 75.28C73.2798 75.28 81.2097 71.35 83.9497 71.05C86.6897 70.75 101.87 71.05 101.87 71.05Z"
          fill="black"/>
    <path d="M158.57 199.43C106.67 233.97 66.9497 199.83 65.1797 198.28L65.1196 198.22" stroke="black" stroke-width="2"
          stroke-miterlimit="10"/>
    <path d="M111 37.0499C111 37.0499 95.3599 55.27 79.4299 65.85C64.5499 75.73 68.55 144.5 68.55 144.5C68.55 144.5 43.0601 66.4199 55.4801 35.8899C59.4801 26.2099 68.5801 16.4099 80.2101 9.17994C116.07 -13.1101 162.8 10.75 166.21 52.83C168.07 75.92 167.99 109.93 157.04 140.73C157.04 140.73 164.12 84.85 146.84 64.73C146.83 64.72 120.19 50.3699 111 37.0499Z"
          fill="black"/>
    <path d="M108.39 281.21H103.69C90.8863 280.658 78.1951 278.57 65.8896 274.99C58.4477 255.229 47.5593 236.946 33.73 220.99C30.3 216.99 28.0996 214.93 28.0996 214.93L1.66992 237.62C2.39992 236.23 29.27 186.52 56.73 199.3C57.41 199.62 58.0998 199.97 58.7798 200.37C70.1098 206.94 81.44 224.19 90.98 242.6C97.97 256.05 104.02 270.19 108.39 281.21Z"
          fill="black"/>
    <path d="M62.8696 214.87C62.8696 214.87 87.4398 247.09 95.0898 273.58" stroke="white" stroke-miterlimit="10"/>
    <path d="M38.5698 213.63C38.5698 213.63 49.2996 226.78 53.6396 234.63" stroke="white" stroke-miterlimit="10"/>
    <path d="M108.57 247.66C109.634 247.66 110.674 247.344 111.559 246.753C112.443 246.162 113.133 245.322 113.541 244.339C113.948 243.356 114.054 242.274 113.847 241.23C113.639 240.187 113.126 239.228 112.374 238.476C111.622 237.723 110.663 237.211 109.62 237.003C108.576 236.796 107.494 236.902 106.511 237.309C105.528 237.717 104.688 238.406 104.097 239.291C103.506 240.176 103.19 241.216 103.19 242.28C103.19 243.707 103.757 245.075 104.766 246.084C105.775 247.093 107.143 247.66 108.57 247.66Z"
          fill="black"/>
    <path d="M108.57 228.27C109.634 228.27 110.674 227.954 111.559 227.363C112.443 226.772 113.133 225.932 113.541 224.949C113.948 223.966 114.054 222.884 113.847 221.84C113.639 220.797 113.126 219.838 112.374 219.086C111.622 218.333 110.663 217.821 109.62 217.613C108.576 217.406 107.494 217.512 106.511 217.919C105.528 218.327 104.688 219.016 104.097 219.901C103.506 220.786 103.19 221.826 103.19 222.89C103.19 224.317 103.757 225.685 104.766 226.694C105.775 227.703 107.143 228.27 108.57 228.27Z"
          fill="black"/>
</svg>
