<svg width="226" height="271" viewBox="0 0 226 271" fill="none" xmlns="http://www.w3.org/2000/svg">
    <path d="M159.94 76.22C159.94 76.22 180.55 66.45 174.53 87.22C168.51 107.99 156.58 104.36 156.58 104.36"
          fill="white"/>
    <path d="M159.94 76.22C159.94 76.22 180.55 66.45 174.53 87.22C168.51 107.99 156.58 104.36 156.58 104.36"
          stroke="black" stroke-width="2" stroke-miterlimit="10"/>
    <path d="M169.65 81.8301C169.65 81.8301 162.95 78.96 159.94 86.48C159.94 86.48 166.941 84.29 164.051 95.78"
          fill="white"/>
    <path d="M169.65 81.8301C169.65 81.8301 162.95 78.96 159.94 86.48C159.94 86.48 166.941 84.29 164.051 95.78"
          stroke="black" stroke-width="2" stroke-linecap="round" stroke-linejoin="round"/>
    <path d="M60.0702 75.0501C60.0702 75.0501 39.4606 65.2701 45.4706 86.0501C51.4806 106.83 63.4706 103.18 63.4706 103.18"
          fill="white"/>
    <path d="M60.0702 75.0501C60.0702 75.0501 39.4606 65.2701 45.4706 86.0501C51.4806 106.83 63.4706 103.18 63.4706 103.18"
          stroke="black" stroke-width="2" stroke-miterlimit="10"/>
    <path d="M50.3506 80.6602C50.3506 80.6602 57.0603 77.7901 60.0703 85.3101C60.0703 85.3101 53.07 83.1301 55.96 94.6201"
          fill="white"/>
    <path d="M50.3506 80.6602C50.3506 80.6602 57.0603 77.7901 60.0703 85.3101C60.0703 85.3101 53.07 83.1301 55.96 94.6201"
          stroke="black" stroke-width="2" stroke-linecap="round" stroke-linejoin="round"/>
    <path d="M224.19 224.89L223.28 225.76L222.891 226.12C222.744 226.267 222.594 226.407 222.44 226.54C218.303 230.411 213.964 234.059 209.44 237.47C205.38 240.517 201.171 243.377 196.811 246.05C193.477 248.103 190.04 250.033 186.5 251.84C185.1 252.56 183.691 253.26 182.271 253.94L181.21 254.44C169.907 259.747 158.019 263.704 145.79 266.23C137.385 267.962 128.854 269.019 120.28 269.39C118.67 269.46 117.06 269.51 115.44 269.53H113.15C112.157 269.53 111.157 269.53 110.15 269.53L110.08 269.32L110.021 269.39L109.91 269.53C108.61 269.53 107.311 269.46 106.011 269.4C68.0535 267.75 31.92 252.653 4.07031 226.81L3.60059 226.37L2.66992 225.49C2.53601 225.378 2.40922 225.258 2.29004 225.13L1.41992 224.28L2.03027 223.46C6.56171 217.436 11.7283 211.918 17.4404 207C18.0004 206.51 18.5601 206 19.1201 205.58C28.2906 198.104 39.0094 192.761 50.5 189.94C68.25 185.39 75.8906 174.72 75.8906 174.72V131.61L143.891 132.09V174.72C143.891 174.72 152.58 186.03 172.82 190.32C183.295 192.561 193.178 196.991 201.82 203.32C203.38 204.46 204.981 205.68 206.601 206.98C212.678 211.856 218.21 217.375 223.101 223.44C223.451 223.92 223.83 224.41 224.19 224.89Z"
          fill="white" stroke="black" stroke-width="2" stroke-linecap="round" stroke-linejoin="round"/>
    <path d="M110.15 152.28C137.649 152.28 159.94 121.934 159.94 84.5C159.94 47.0661 137.649 16.72 110.15 16.72C82.6521 16.72 60.3604 47.0661 60.3604 84.5C60.3604 121.934 82.6521 152.28 110.15 152.28Z"
          fill="white" stroke="black" stroke-width="2.19" stroke-miterlimit="10"/>
    <path d="M107 74.4399V95.9202C107 95.9202 109.81 104.02 118.49 97.29" stroke="black" stroke-width="2"
          stroke-linecap="round" stroke-linejoin="round"/>
    <path d="M93.7305 107.05C93.7305 107.05 111.381 121.96 127.931 108.05" stroke="black" stroke-width="2"
          stroke-linecap="round" stroke-linejoin="round"/>
    <path d="M130.85 73.67C133.114 73.67 134.95 71.8344 134.95 69.57C134.95 67.3056 133.114 65.47 130.85 65.47C128.585 65.47 126.75 67.3056 126.75 69.57C126.75 71.8344 128.585 73.67 130.85 73.67Z"
          fill="black"/>
    <path d="M88.1699 73.67C90.4343 73.67 92.2695 71.8344 92.2695 69.57C92.2695 67.3056 90.4343 65.47 88.1699 65.47C85.9056 65.47 84.0703 67.3056 84.0703 69.57C84.0703 71.8344 85.9056 73.67 88.1699 73.67Z"
          fill="black"/>
    <path d="M118.021 55.3101L121.71 59.99L146.601 59.5401C146.601 59.5401 138.671 55.6101 135.931 55.3101C133.191 55.0101 118.021 55.3101 118.021 55.3101Z"
          fill="black"/>
    <path d="M100.78 54.96L97.7803 60.21L72.8799 59.77C72.8799 59.77 80.8208 55.83 83.5508 55.54C86.2808 55.25 100.78 54.96 100.78 54.96Z"
          fill="black"/>
    <path d="M143.57 134.77V146.41C141.16 161.41 124.97 172.49 107.83 169.21C90.9601 165.97 77.1702 136.53 76.7402 135.6C85.5302 146.74 97.4502 152.28 110.16 152.28C123.16 152.28 134.7 146.41 143.57 134.77Z"
          fill="black"/>
    <path d="M75.8604 174.71C75.8604 174.71 109.28 211.5 143.86 174.71H75.8604Z" fill="white"/>
    <path d="M75.8604 174.71C75.8604 174.71 109.28 211.5 143.86 174.71" stroke="black" stroke-width="2.31"
          stroke-miterlimit="10"/>
    <path d="M86.8301 85.17C96.6387 85.17 104.59 77.2186 104.59 67.41C104.59 57.6014 96.6387 49.65 86.8301 49.65C77.0215 49.65 69.0703 57.6014 69.0703 67.41C69.0703 77.2186 77.0215 85.17 86.8301 85.17Z"
          stroke="black" stroke-width="1.72" stroke-miterlimit="10"/>
    <path d="M132.19 85.17C141.999 85.17 149.95 77.2186 149.95 67.41C149.95 57.6014 141.999 49.65 132.19 49.65C122.382 49.65 114.43 57.6014 114.43 67.41C114.43 77.2186 122.382 85.17 132.19 85.17Z"
          stroke="black" stroke-width="1.72" stroke-miterlimit="10"/>
    <path d="M149.95 67.4099L159.79 72.7399" stroke="black" stroke-width="1.72" stroke-miterlimit="10"/>
    <path d="M69.0703 65.8301L60.5098 73.3201" stroke="black" stroke-width="1.72" stroke-miterlimit="10"/>
    <path d="M104.58 67.4099H114.43" stroke="black" stroke-width="1.72" stroke-miterlimit="10"/>
    <path d="M129.65 98.3201C129.65 98.3201 137.33 105.42 136.94 118.38" stroke="black" stroke-linecap="round"
          stroke-linejoin="round"/>
    <path d="M91.6806 98.3501C91.6806 98.3501 83.9999 105.46 84.3799 118.42" stroke="black" stroke-linecap="round"
          stroke-linejoin="round"/>
    <path d="M168.87 52.8101C166.21 38.9901 161.18 29.55 154.79 24.21C168.29 4.87996 88.5101 -10.37 68.1601 9.20996C66.2313 11.0681 64.8873 13.4494 64.2939 16.061C63.7005 18.6727 63.8838 21.401 64.8203 23.9102C58.2503 29.1802 53.0706 38.7 50.3506 52.8C46.8006 71.27 60.7607 75.8 60.7607 75.8C60.7607 75.8 64.2301 53.86 72.8701 47.72C78.2301 43.91 79.0599 38.2801 78.9199 34.5601C93.4199 39.5601 117.51 44.6302 140.32 34.1602C140.11 37.8702 140.79 43.77 146.32 47.72C154.96 53.86 158.431 75.8 158.431 75.8C158.431 75.8 172.42 71.2801 168.87 52.8101Z"
          fill="black"/>
    <path d="M186.46 236.24V251.84C185.06 252.56 183.65 253.26 182.23 253.94L181.17 254.44C169.867 259.747 157.979 263.704 145.75 266.23V236.23L186.46 236.24Z"
          fill="black"/>
</svg>
